<svg xmlns="http://www.w3.org/2000/svg">
  <symbol id="wa" viewBox="0 0 16 16">
	  <path d="M0 0h16v16H0z" fill="none" />
	  <path fill="currentColor" d="M13.601 2.326A7.85 7.85 0 0 0 7.994 0C3.627 0 .068 3.558.064 7.926c0 1.399.366 2.76 1.057 3.965L0 16l4.204-1.102a7.9 7.9 0 0 0 3.79.965h.004c4.368 0 7.926-3.558 7.93-7.93A7.9 7.9 0 0 0 13.6 2.326zM7.994 14.521a6.6 6.6 0 0 1-3.356-.92l-.24-.144l-2.494.654l.666-2.433l-.156-.251a6.56 6.56 0 0 1-1.007-3.505c0-3.626 2.957-6.584 6.591-6.584a6.56 6.56 0 0 1 4.66 1.931a6.56 6.56 0 0 1 1.928 4.66c-.004 3.639-2.961 6.592-6.592 6.592m3.615-4.934c-.197-.099-1.17-.578-1.353-.646c-.182-.065-.315-.099-.445.099c-.133.197-.513.646-.627.775c-.114.133-.232.148-.43.05c-.197-.1-.836-.308-1.592-.985c-.59-.525-.985-1.175-1.103-1.372c-.114-.198-.011-.304.088-.403c.087-.088.197-.232.296-.346c.1-.114.133-.198.198-.33c.065-.134.034-.248-.015-.347c-.05-.099-.445-1.076-.612-1.47c-.16-.389-.323-.335-.445-.34c-.114-.007-.247-.007-.38-.007a.73.73 0 0 0-.529.247c-.182.198-.691.677-.691 1.654s.71 1.916.81 2.049c.098.133 1.394 2.132 3.383 2.992c.47.205.84.326 1.129.418c.475.152.904.129 1.246.08c.38-.058 1.171-.48 1.338-.943c.164-.464.164-.86.114-.943c-.049-.084-.182-.133-.38-.232" />
  </symbol>
  <symbol id="mail" viewBox="0 0 32 32">
	  <path d="M0 0h32v32H0z" fill="none" />
	  <path fill="currentColor" d="M28 6H4a2 2 0 0 0-2 2v16a2 2 0 0 0 2 2h24a2 2 0 0 0 2-2V8a2 2 0 0 0-2-2m-2.2 2L16 14.78L6.2 8ZM4 24V8.91l11.43 7.91a1 1 0 0 0 1.14 0L28 8.91V24Z" />
  </symbol>
  <symbol id="li" viewBox="0 0 24 24">
	  <path d="M0 0h24v24H0z" fill="none" />
	  <path fill="currentColor" fill-rule="evenodd" d="M1 2.838A1.84 1.84 0 0 1 2.838 1H21.16A1.837 1.837 0 0 1 23 2.838V21.16A1.84 1.84 0 0 1 21.161 23H2.838A1.84 1.84 0 0 1 1 21.161zm8.708 6.55h2.979v1.496c.43-.86 1.53-1.634 3.183-1.634c3.169 0 3.92 1.713 3.92 4.856v5.822h-3.207v-5.106c0-1.79-.43-2.8-1.522-2.8c-1.515 0-2.145 1.089-2.145 2.8v5.106H9.708zm-5.5 10.403h3.208V9.25H4.208zM7.875 5.812a2.063 2.063 0 1 1-4.125 0a2.063 2.063 0 0 1 4.125 0" clip-rule="evenodd" />
  </symbol>
  <symbol id="ig" viewBox="0 0 24 24">
	  <path d="M0 0h24v24H0z" fill="none" />
	  <g fill="none">
		  <path stroke="currentColor" stroke-width="2" d="M3 11c0-3.771 0-5.657 1.172-6.828S7.229 3 11 3h2c3.771 0 5.657 0 6.828 1.172S21 7.229 21 11v2c0 3.771 0 5.657-1.172 6.828S16.771 21 13 21h-2c-3.771 0-5.657 0-6.828-1.172S3 16.771 3 13z" />
		  <circle cx="16.5" cy="7.5" r="1.5" fill="currentColor" />
		  <circle cx="12" cy="12" r="3" stroke="currentColor" stroke-width="2" />
	  </g>
  </symbol>
  <symbol id="x" viewBox="0 0 16 16">
	  <path d="M0 0h16v16H0z" fill="none" />
	  <path fill="currentColor" d="M12.6.75h2.454l-5.36 6.142L16 15.25h-4.937l-3.867-5.07l-4.425 5.07H.316l5.733-6.57L0 .75h5.063l3.495 4.633L12.601.75Zm-.86 13.028h1.36L4.323 2.145H2.865z" />
  </symbol>
  <symbol id="fb" viewBox="0 0 24 24">
	  <path d="M0 0h24v24H0z" fill="none" />
	  <g fill="none">
		  <g clip-path="url(#SVGXv8lpc2Y)">
			  <path fill="currentColor" fill-rule="evenodd" d="M0 12.067C0 18.034 4.333 22.994 10 24v-8.667H7V12h3V9.333c0-3 1.933-4.666 4.667-4.666c.866 0 1.8.133 2.666.266V8H15.8c-1.467 0-1.8.733-1.8 1.667V12h3.2l-.533 3.333H14V24c5.667-1.006 10-5.966 10-11.933C24 5.43 18.6 0 12 0S0 5.43 0 12.067" clip-rule="evenodd" />
		  </g>
		  <defs>
			  <clipPath id="SVGXv8lpc2Y">
				  <path fill="#fff" d="M0 0h24v24H0z" />
			  </clipPath>
		  </defs>
	  </g>
  </symbol>
  <symbol id="dc" viewBox="0 0 24 24">
	  <path d="M0 0h24v24H0z" fill="none" />
	  <path fill="currentColor" d="M20.317 4.492c-1.53-.69-3.17-1.2-4.885-1.49a.075.075 0 0 0-.079.036c-.21.369-.444.85-.608 1.23a18.6 18.6 0 0 0-5.487 0a12 12 0 0 0-.617-1.23A.08.08 0 0 0 8.562 3c-1.714.29-3.354.8-4.885 1.491a.1.1 0 0 0-.032.027C.533 9.093-.32 13.555.099 17.961a.08.08 0 0 0 .031.055a20 20 0 0 0 5.993 2.98a.08.08 0 0 0 .084-.026a14 14 0 0 0 1.226-1.963a.074.074 0 0 0-.041-.104a13 13 0 0 1-1.872-.878a.075.075 0 0 1-.008-.125q.19-.14.372-.287a.08.08 0 0 1 .078-.01c3.927 1.764 8.18 1.764 12.061 0a.08.08 0 0 1 .079.009q.18.148.372.288a.075.075 0 0 1-.006.125q-.895.515-1.873.877a.075.075 0 0 0-.041.105c.36.687.772 1.341 1.225 1.962a.08.08 0 0 0 .084.028a20 20 0 0 0 6.002-2.981a.08.08 0 0 0 .032-.054c.5-5.094-.838-9.52-3.549-13.442a.06.06 0 0 0-.031-.028M8.02 15.278c-1.182 0-2.157-1.069-2.157-2.38c0-1.312.956-2.38 2.157-2.38c1.21 0 2.176 1.077 2.157 2.38c0 1.312-.956 2.38-2.157 2.38m7.975 0c-1.183 0-2.157-1.069-2.157-2.38c0-1.312.955-2.38 2.157-2.38c1.21 0 2.176 1.077 2.157 2.38c0 1.312-.946 2.38-2.157 2.38" />
  </symbol>
  <symbol id="gh" viewBox="0 0 24 24">
	  <path d="M0 0h24v24H0z" fill="none" />
	  <g fill="none">
		  <g clip-path="url(#SVGXv8lpc2Y)">
			  <path fill="currentColor" fill-rule="evenodd" d="M12 0C5.37 0 0 5.37 0 12c0 5.31 3.435 9.795 8.205 11.385c.6.105.825-.255.825-.57c0-.285-.015-1.23-.015-2.235c-3.015.555-3.795-.735-4.035-1.41c-.135-.345-.72-1.41-1.23-1.695c-.42-.225-1.02-.78-.015-.795c.945-.015 1.62.87 1.845 1.23c1.08 1.815 2.805 1.305 3.495.99c.105-.78.42-1.305.765-1.605c-2.67-.3-5.46-1.335-5.46-5.925c0-1.305.465-2.385 1.23-3.225c-.12-.3-.54-1.53.12-3.18c0 0 1.005-.315 3.3 1.23c.96-.27 1.98-.405 3-.405s2.04.135 3 .405c2.295-1.56 3.3-1.23 3.3-1.23c.66 1.65.24 2.88.12 3.18c.765.84 1.23 1.905 1.23 3.225c0 4.605-2.805 5.625-5.475 5.925c.435.375.81 1.095.81 2.22c0 1.605-.015 2.895-.015 3.3c0 .315.225.69.825.57A12.02 12.02 0 0 0 24 12c0-6.63-5.37-12-12-12" clip-rule="evenodd" />
		  </g>
		  <defs>
			  <clipPath id="SVGXv8lpc2Y">
				  <path fill="#fff" d="M0 0h24v24H0z" />
			  </clipPath>
		  </defs>
	  </g>
  </symbol>
  <symbol id="yt" viewBox="0 0 24 24">
	  <path d="M0 0h24v24H0z" fill="none" />
	  <g fill="none">
		  <g clip-path="url(#SVGXv8lpc2Y)">
			  <path fill="currentColor" d="M23.5 6.507a2.8 2.8 0 0 0-.766-1.27a3.05 3.05 0 0 0-1.338-.742C19.518 4 11.994 4 11.994 4a77 77 0 0 0-9.39.47a3.16 3.16 0 0 0-1.338.76c-.37.356-.638.795-.778 1.276A29 29 0 0 0 0 12c-.012 1.841.151 3.68.488 5.494c.137.479.404.916.775 1.269s.833.608 1.341.743c1.903.494 9.39.494 9.39.494a77 77 0 0 0 9.402-.47a3.05 3.05 0 0 0 1.338-.742a2.8 2.8 0 0 0 .765-1.27A28.4 28.4 0 0 0 24 12.023a26.6 26.6 0 0 0-.5-5.517M9.602 15.424V8.577l6.26 3.424z" />
		  </g>
		  <defs>
			  <clipPath id="SVGXv8lpc2Y">
				  <path fill="#fff" d="M0 0h24v24H0z" />
			  </clipPath>
		  </defs>
	  </g>
  </symbol>
</svg>
